<svg width="861" height="239" viewBox="0 0 861 239" fill="none" xmlns="http://www.w3.org/2000/svg">
<path d="M51.4896 68.8102C58.3818 73.0004 65.7899 77.1555 73.7171 81.2913C81.6795 85.3983 89.1709 89.8352 96.2137 94.6405C103.289 99.4459 109.063 104.918 113.571 111.059C118.06 117.2 120.312 124.408 120.312 132.683C120.312 142.56 117.474 151.155 111.834 158.446C106.227 165.702 98.9181 171.308 89.9399 175.265C80.9426 179.218 71.4133 181.204 61.3681 181.204C49.8362 181.204 39.8744 179.436 31.4634 175.931C23.0524 172.426 16.2595 168.022 11.104 162.716C5.92919 157.376 2.55838 151.972 0.956279 146.497C-0.613775 141.025 -0.245292 136.422 2.02328 132.683C4.24378 128.778 7.23009 125.273 10.9694 122.204C14.7407 119.135 18.1275 116.665 21.1171 114.797C24.0873 112.927 25.5869 111.994 25.5869 111.994C25.8881 118.267 27.157 124.472 29.3935 130.613C31.6621 136.755 34.6163 142.345 38.2723 147.365C41.9603 152.404 46.1162 156.425 50.7558 159.446C55.4276 162.431 60.2338 163.918 65.1747 163.918C71.1826 163.918 76.5368 162.316 81.2598 159.112C85.9667 155.877 88.3378 151.555 88.3378 146.164C88.3378 141.81 87.4182 138.071 85.6014 134.951C83.8135 131.799 80.8945 128.746 76.854 125.808C72.8488 122.87 67.5106 119.603 60.833 115.999C54.1587 112.395 46.0809 107.839 36.6029 102.316C27.157 96.9439 19.9988 91.5523 15.1092 86.1639C10.2516 80.7402 6.96414 75.4511 5.22747 70.2806C3.52604 65.0748 2.69295 60.1701 2.69295 55.5313C2.69295 46.2377 5.31078 37.8925 10.5689 30.5018C15.8077 23.0759 22.8505 17.1878 31.6621 12.8149C40.5088 8.46125 50.2528 6.27637 60.9003 6.27637C70.8141 6.27637 79.6929 7.79491 87.5368 10.8127C95.4127 13.8016 101.754 17.6555 106.56 22.3584C111.366 27.0804 114.321 32.0363 115.439 37.2422C116.589 42.4159 115.372 47.154 111.767 51.4596C108.598 55.2462 104.891 58.6003 100.619 61.538C96.3483 64.4404 93.0095 66.4748 90.6064 67.6761C88.6358 54.0289 84.4992 43.2841 78.1901 35.4417C71.9163 27.5641 64.4377 23.627 55.7608 23.627C48.4168 23.627 42.7774 25.6132 38.8715 29.5664C35.0008 33.5388 33.0655 38.2096 33.0655 43.582C33.0655 47.8204 34.6676 52.1772 37.8718 56.6654C41.076 61.1696 45.6131 65.2062 51.4896 68.8102Z" fill="white"/>
<path d="M236.979 70.6138L189.115 204.363C187.461 209.601 186.978 214.473 187.647 218.978C188.314 223.466 189.531 227.403 191.319 230.792C193.136 234.163 195.023 236.898 196.991 239H172.693C166.551 239 162.379 236.863 160.21 232.593C158.025 228.323 158.576 222.447 161.879 214.973L176.965 179C172.293 178.251 168.105 176.296 164.417 173.128C160.761 169.973 158.207 166.087 156.74 161.448L118.023 59.8018H140.985C144.589 59.8018 147.877 60.9005 150.866 63.0694C153.837 65.2574 155.871 68.0605 156.938 71.4787L186.846 155.172L207.071 93.971C208.273 90.367 209.276 86.4299 210.077 82.1595C210.91 77.8859 211.076 73.8173 210.544 69.9442C210.041 66.0423 208.375 62.6529 205.536 59.8018H229.1C231.939 59.8018 234.191 60.9359 235.842 63.204C237.479 65.4401 237.863 67.91 236.979 70.6138Z" fill="white"/>
<path d="M280.573 147.297C280.573 151.487 280.788 155.809 281.24 160.246C281.724 164.651 282.307 168.588 282.977 172.057C283.643 175.495 284.261 177.866 284.845 179.201H265.754C260.948 179.201 256.891 177.564 253.604 174.262C250.3 170.975 248.663 166.919 248.663 162.114V31.9011C248.663 27.7301 248.429 23.4758 247.996 19.1542C247.545 14.8005 247.013 10.9113 246.394 7.47386C245.811 4.00439 245.141 1.51849 244.392 0H263.482C268.288 0 272.329 1.70102 275.632 5.07118C278.92 8.46056 280.573 12.465 280.573 17.0846V147.297Z" fill="white"/>
<path d="M354.78 57.533C368.299 57.533 379.295 60.4354 387.758 66.2083C396.201 71.9971 402.41 79.5896 406.38 88.9665C410.386 98.3113 412.388 108.454 412.388 119.4C412.388 130.478 410.386 140.723 406.38 150.1C402.41 159.445 396.201 167.021 387.758 172.794C379.295 178.583 368.299 181.47 354.78 181.47C341.297 181.47 330.316 178.583 321.87 172.794C313.408 167.021 307.185 159.445 303.18 150.1C299.207 140.723 297.239 130.478 297.239 119.4C297.239 108.454 299.207 98.3113 303.18 88.9665C307.185 79.5896 313.408 71.9971 321.87 66.2083C330.316 60.4354 341.297 57.533 354.78 57.533ZM354.78 168.655C361.221 168.655 366.411 164.718 370.333 156.844C374.239 148.966 376.207 136.485 376.207 119.4C376.207 102.447 374.239 90.0332 370.333 82.1589C366.411 74.2845 361.221 70.3472 354.78 70.3472C348.372 70.3472 343.197 74.2845 339.294 82.1589C335.372 90.0332 333.418 102.447 333.418 119.4C333.418 136.485 335.372 148.966 339.294 156.844C343.197 164.718 348.372 168.655 354.78 168.655Z" fill="white"/>
<path d="M539.625 147.297C539.625 151.487 539.843 155.809 540.291 160.246C540.775 164.651 541.362 168.588 542.028 172.061C542.695 175.498 543.313 177.866 543.896 179.201H524.806C519.999 179.201 515.943 177.564 512.655 174.262C509.352 170.975 507.718 166.919 507.718 162.114L507.916 107.72C507.916 97.9781 506.667 91.036 504.18 86.897C501.726 82.7611 498.32 80.8069 493.965 81.0248C489.643 81.2586 484.638 83.2769 478.947 87.0987C473.237 90.9366 467.165 96.0752 460.722 102.514V147.297C460.722 151.487 460.94 155.809 461.388 160.246C461.824 164.651 462.391 168.588 463.058 172.061C463.727 175.498 464.362 177.866 464.993 179.201H445.902C441.096 179.201 437.04 177.564 433.752 174.262C430.449 170.975 428.814 166.919 428.814 162.114V91.7023C428.814 87.5313 428.564 83.2257 428.081 78.8208C427.629 74.3838 427.094 70.4466 426.479 67.0092C425.892 63.5397 425.242 61.137 424.54 59.8011H443.634C448.44 59.8011 452.477 61.4541 455.781 64.741C459.068 68.0439 460.722 72.0804 460.722 76.8858V89.7001C468.498 82.492 475.157 76.5366 480.681 71.8145C486.24 67.1085 491.428 63.5397 496.234 61.137C501.04 58.7343 506.282 57.533 511.989 57.533C519.499 57.533 525.206 58.8496 529.077 61.4702C532.983 64.1067 535.655 67.794 537.087 72.5481C538.507 77.2702 539.292 82.8925 539.426 89.4342C539.558 95.9406 539.625 103.081 539.625 110.856V147.297Z" fill="white"/>
<path d="M613.368 57.533C626.887 57.533 637.883 60.4354 646.346 66.2083C654.789 71.9971 660.998 79.5896 664.968 88.9665C668.974 98.3113 670.976 108.454 670.976 119.4C670.976 130.478 668.974 140.723 664.968 150.1C660.998 159.445 654.789 167.021 646.346 172.794C637.883 178.583 626.887 181.47 613.368 181.47C599.885 181.47 588.904 178.583 580.458 172.794C571.999 167.021 565.773 159.445 561.768 150.1C557.795 140.723 555.827 130.478 555.827 119.4C555.827 108.454 557.795 98.3113 561.768 88.9665C565.773 79.5896 571.999 71.9971 580.458 66.2083C588.904 60.4354 599.885 57.533 613.368 57.533ZM613.368 168.655C619.812 168.655 624.999 164.718 628.921 156.844C632.827 148.966 634.798 136.485 634.798 119.4C634.798 102.447 632.827 90.0332 628.921 82.1589C624.999 74.2845 619.812 70.3472 613.368 70.3472C606.96 70.3472 601.788 74.2845 597.882 82.1589C593.96 90.0332 592.009 102.447 592.009 119.4C592.009 136.485 593.96 148.966 597.882 156.844C601.788 164.718 606.96 168.655 613.368 168.655Z" fill="white"/>
<path d="M852.472 59.8018C855.311 59.8018 857.58 61.0031 859.281 63.4058C861.018 65.8085 861.434 68.3777 860.55 71.0783L822.769 179.199H807.95C802.509 179.199 797.552 177.648 793.063 174.528C788.558 171.376 785.485 167.237 783.851 162.114L766.76 113.125L743.799 179.199H733.052C727.611 179.199 722.654 177.648 718.165 174.528C713.66 171.376 710.52 167.237 708.751 162.114L673.172 59.8018H692.999C696.735 59.8018 700.074 60.8525 703.012 62.9381C705.948 65.0396 708.017 67.8107 709.219 71.2802L735.92 154.708L753.011 105.917C754.696 100.228 755.497 95.0218 755.414 90.2997C755.315 85.5456 754.613 80.7403 753.277 75.8837C751.941 70.995 750.207 65.6419 748.07 59.8018H766.962C770.567 59.8018 773.854 60.8525 776.84 62.9381C779.862 65.0396 781.98 67.8107 783.181 71.2802L810.151 154.438L834.916 83.4281C836.387 78.6227 837.121 74.2819 837.121 70.412C837.121 66.5069 835.551 62.9701 832.446 59.8018H852.472Z" fill="white"/>
</svg>
