<svg width="24" height="24" viewBox="0 0 24 24" fill="none" xmlns="http://www.w3.org/2000/svg">
<path fill-rule="evenodd" clip-rule="evenodd" d="M6.32759 8.34749L6.93059 15.5195C6.97459 16.0715 7.42559 16.4855 7.97659 16.4855H7.98059H18.8916H18.8936C19.4146 16.4855 19.8596 16.0975 19.9336 15.5825L20.8836 9.02349C20.9056 8.86749 20.8666 8.71149 20.7716 8.58549C20.6776 8.45849 20.5396 8.37649 20.3836 8.35449C20.1746 8.36249 11.5016 8.35049 6.32759 8.34749V8.34749ZM7.97459 17.9855C6.65759 17.9855 5.54259 16.9575 5.43559 15.6425L4.51959 4.74849L3.01259 4.48849C2.60359 4.41649 2.33059 4.02949 2.40059 3.62049C2.47259 3.21149 2.86759 2.94549 3.26759 3.00949L5.34759 3.36949C5.68259 3.42849 5.93759 3.70649 5.96659 4.04649L6.20159 6.84749C20.4776 6.85349 20.5236 6.86049 20.5926 6.86849C21.1496 6.94949 21.6396 7.24049 21.9736 7.68849C22.3076 8.13549 22.4476 8.68649 22.3676 9.23849L21.4186 15.7965C21.2396 17.0445 20.1556 17.9855 18.8956 17.9855H18.8906H7.98259H7.97459Z" fill="#262626"/>
<path fill-rule="evenodd" clip-rule="evenodd" d="M17.2876 12.0437H14.5156C14.1006 12.0437 13.7656 11.7077 13.7656 11.2937C13.7656 10.8797 14.1006 10.5437 14.5156 10.5437H17.2876C17.7016 10.5437 18.0376 10.8797 18.0376 11.2937C18.0376 11.7077 17.7016 12.0437 17.2876 12.0437" fill="#262626"/>
<path fill-rule="evenodd" clip-rule="evenodd" d="M7.54402 20.7019C7.84502 20.7019 8.08802 20.9449 8.08802 21.2459C8.08802 21.5469 7.84502 21.7909 7.54402 21.7909C7.24202 21.7909 6.99902 21.5469 6.99902 21.2459C6.99902 20.9449 7.24202 20.7019 7.54402 20.7019" fill="#262626"/>
<mask id="mask0_188_1270" style="mask-type:luminance" maskUnits="userSpaceOnUse" x="6" y="20" width="3" height="2">
<path fill-rule="evenodd" clip-rule="evenodd" d="M6.99902 21.2457C6.99902 21.5477 7.24202 21.7917 7.54502 21.7917V21.7917C7.84602 21.7917 8.08902 21.5477 8.08902 21.2457V21.2457C8.08902 20.9447 7.84602 20.7017 7.54502 20.7017V20.7017C7.24202 20.7017 6.99902 20.9447 6.99902 21.2457V21.2457Z" fill="white"/>
</mask>
<g mask="url(#mask0_188_1270)">
<path fill-rule="evenodd" clip-rule="evenodd" d="M2 26.7907H13.089V15.7017H2V26.7907Z" fill="#262626"/>
</g>
<path fill-rule="evenodd" clip-rule="evenodd" d="M7.54302 21.0409C7.43002 21.0409 7.33802 21.1329 7.33802 21.2459C7.33802 21.4729 7.74902 21.4729 7.74902 21.2459C7.74902 21.1329 7.65602 21.0409 7.54302 21.0409M7.54302 22.5409C6.82902 22.5409 6.24902 21.9599 6.24902 21.2459C6.24902 20.5319 6.82902 19.9519 7.54302 19.9519C8.25702 19.9519 8.83802 20.5319 8.83802 21.2459C8.83802 21.9599 8.25702 22.5409 7.54302 22.5409" fill="#262626"/>
<path fill-rule="evenodd" clip-rule="evenodd" d="M18.8243 20.7019C19.1253 20.7019 19.3693 20.9449 19.3693 21.2459C19.3693 21.5469 19.1253 21.7909 18.8243 21.7909C18.5223 21.7909 18.2793 21.5469 18.2793 21.2459C18.2793 20.9449 18.5223 20.7019 18.8243 20.7019" fill="#262626"/>
<mask id="mask1_188_1270" style="mask-type:luminance" maskUnits="userSpaceOnUse" x="18" y="20" width="2" height="2">
<path fill-rule="evenodd" clip-rule="evenodd" d="M18.2803 21.2457C18.2803 21.5477 18.5233 21.7917 18.8253 21.7917V21.7917C19.1253 21.7917 19.3703 21.5477 19.3703 21.2457V21.2457C19.3703 20.9447 19.1253 20.7017 18.8253 20.7017V20.7017C18.5233 20.7017 18.2803 20.9447 18.2803 21.2457V21.2457Z" fill="white"/>
</mask>
<g mask="url(#mask1_188_1270)">
<path fill-rule="evenodd" clip-rule="evenodd" d="M13.2803 26.7907H24.3703V15.7017H13.2803V26.7907Z" fill="#262626"/>
</g>
<path fill-rule="evenodd" clip-rule="evenodd" d="M18.8233 21.0409C18.7113 21.0409 18.6193 21.1329 18.6193 21.2459C18.6203 21.4749 19.0303 21.4729 19.0293 21.2459C19.0293 21.1329 18.9363 21.0409 18.8233 21.0409M18.8233 22.5409C18.1093 22.5409 17.5293 21.9599 17.5293 21.2459C17.5293 20.5319 18.1093 19.9519 18.8233 19.9519C19.5383 19.9519 20.1193 20.5319 20.1193 21.2459C20.1193 21.9599 19.5383 22.5409 18.8233 22.5409" fill="#262626"/>
</svg>
