<svg width="24" height="24" viewBox="0 0 24 24" fill="none" xmlns="http://www.w3.org/2000/svg">
<path d="M20.1702 12.2685C20.0923 12.2685 20.0158 12.2735 19.9407 12.2824V11.4778C19.9407 10.3552 18.9511 9.44154 17.7347 9.44154H10.7C9.48362 9.44154 8.49404 10.3548 8.49404 11.4778V12.2824C8.4189 12.2735 8.34239 12.2685 8.26451 12.2685C7.25569 12.2685 6.4347 13.0261 6.4347 13.9572C6.4347 14.6244 6.85573 15.2201 7.50125 15.4924V17.691C7.50125 18.4123 8.13715 18.9992 8.91873 18.9992H9.10245V19.7463C9.10245 19.8863 9.22569 20 9.37733 20H10.3307C10.4824 20 10.6056 19.8863 10.6056 19.7463V18.9996H17.8291V19.7463C17.8291 19.8863 17.9523 20 18.104 20H19.0574C19.209 20 19.3323 19.8863 19.3323 19.7463V18.9996H19.516C20.2976 18.9996 20.9334 18.4128 20.9334 17.6914V15.4928C21.579 15.2201 22 14.6248 22 13.9576C22 13.0261 21.179 12.2685 20.1702 12.2685ZM9.0438 11.4778C9.0438 10.6347 9.78691 9.94891 10.7 9.94891H17.7343C18.6478 9.94891 19.3904 10.6347 19.3904 11.4778V12.4296C18.7701 12.7002 18.3399 13.2832 18.3399 13.9572V15.0548C15.4349 14.6134 12.9994 14.6134 10.0943 15.0548V13.9572C10.0943 13.2832 9.66413 12.7002 9.0438 12.4296V11.4778ZM10.0558 19.4926H9.65221V18.9996H10.0558V19.4926ZM18.7825 19.4926H18.3789V18.9996H18.7825V19.4926ZM20.572 15.0793C20.4593 15.1136 20.3832 15.2108 20.3832 15.3203V17.6914C20.3832 18.1329 19.9938 18.4923 19.5155 18.4923H8.91827C8.43998 18.4923 8.05056 18.1329 8.05056 17.6914V15.3203C8.05056 15.2108 7.97451 15.114 7.8618 15.0793C7.33678 14.9191 6.98401 14.4684 6.98401 13.9572C6.98401 13.3056 7.55852 12.7758 8.26405 12.7758C8.96959 12.7758 9.54409 13.306 9.54409 13.9572V15.3554C9.54409 15.4302 9.57983 15.5013 9.64214 15.5495C9.70444 15.5977 9.78645 15.618 9.86617 15.6053C12.9563 15.1076 15.477 15.1076 18.5672 15.6053C18.6469 15.618 18.7293 15.5977 18.7912 15.5495C18.8535 15.5013 18.8892 15.4302 18.8892 15.3554V13.9572C18.8892 13.3056 19.4637 12.7758 20.1693 12.7758C20.8753 12.7758 21.4493 13.306 21.4493 13.9572C21.4502 14.4679 21.0975 14.9191 20.572 15.0793ZM6.24411 19.4926H5.10426V7.47208H6.72837C7.01699 7.47208 7.27493 7.35708 7.45406 7.14821C7.63365 6.93934 7.69596 6.68185 7.63044 6.42224L6.92995 3.66001C6.83145 3.27145 6.46035 3 6.02787 3H3.62813C3.19565 3 2.82456 3.27145 2.72606 3.66001L2.02556 6.42224C1.95959 6.68185 2.02235 6.93934 2.20194 7.14821C2.35588 7.32748 2.56754 7.43699 2.80715 7.46489V10.5611C2.80715 10.7011 2.93039 10.8148 3.08203 10.8148C3.23367 10.8148 3.35691 10.7011 3.35691 10.5611V7.47208H4.55449V19.4926H3.41464C3.263 19.4926 3.13976 19.6064 3.13976 19.7463C3.13976 19.8863 3.263 20 3.41464 20H6.24411C6.39576 20 6.519 19.8863 6.519 19.7463C6.519 19.6064 6.39621 19.4926 6.24411 19.4926ZM3.62813 3.50737H6.02787C6.20654 3.50737 6.35361 3.61519 6.39438 3.77586L6.51991 4.27013H3.13655L3.26208 3.77586C3.3024 3.61519 3.44992 3.50737 3.62813 3.50737ZM2.63305 6.83321C2.557 6.74484 2.53364 6.64802 2.56158 6.53809L3.00781 4.7775H6.64865L7.09488 6.53809C7.12282 6.64802 7.09946 6.74442 7.02341 6.83321C6.94736 6.92158 6.85069 6.96471 6.72837 6.96471H2.9281C2.80577 6.96471 2.7091 6.922 2.63305 6.83321Z" fill="black" stroke="black" stroke-width="0.5"/>
</svg>
