<svg width="24" height="24" viewBox="0 0 24 24" fill="none" xmlns="http://www.w3.org/2000/svg">
<path d="M1.69506 4.59988C2.49506 1.13988 7.70506 1.13988 8.49506 4.59988C8.96506 6.62988 7.67506 8.34988 6.55506 9.41988C5.73506 10.1999 4.44506 10.1899 3.62506 9.41988C2.51506 8.34988 1.22506 6.62988 1.69506 4.59988Z" stroke="black" stroke-width="1.5"/>
<path d="M14.695 16.5999C15.495 13.1399 20.735 13.1399 21.535 16.5999C22.005 18.6299 20.715 20.3499 19.585 21.4199C18.765 22.1999 17.465 22.1899 16.645 21.4199C15.515 20.3499 14.225 18.6299 14.695 16.5999Z" stroke="black" stroke-width="1.5"/>
<path d="M11.6247 5H14.3047C16.1547 5 17.0147 7.29 15.6247 8.51L7.6347 15.5C6.2447 16.71 7.1047 19 8.9447 19H11.6247" stroke="black" stroke-width="1.5" stroke-linecap="round" stroke-linejoin="round"/>
<path d="M5.11073 5.5H5.12228" stroke="black" stroke-width="2" stroke-linecap="round" stroke-linejoin="round"/>
<path d="M18.1107 17.5H18.1223" stroke="black" stroke-width="2" stroke-linecap="round" stroke-linejoin="round"/>
</svg>
